<svg version="1.2" baseProfile="tiny-ps" xmlns="http://www.w3.org/2000/svg" viewBox="0 0 425 110" width="400" height="110">
	<title>logo-svg</title>
	<style>
		tspan { white-space:pre }
		.shp0 { fill: #00d7ff } 
		.shp1 { fill: #dbb2d5 } 
	</style>
	<g id="Layer">
		<g id="Layer">
			<g id="Layer">
				<path id="color_x5F_2_11_" class="shp0" d="M348.65 61.11C348.65 66.82 343.3 70.6 339.1 70.81C337.02 70.92 336.17 73.87 338 75.13C341.15 77.28 342.8 79.57 338 82.2C338.27 83.86 340.22 85.42 339.93 85.42C339.63 85.42 338.51 86.78 338 88.24C339.05 89.41 340.32 90.39 338.95 93.31C337.59 96.24 338.17 100.72 344.61 100.72C349.38 100.72 363.76 92.65 378.75 106C370.83 96.96 359.63 88.9 359.63 68.74C359.63 58.37 365.4 46.57 369.36 42.61C364.62 41.06 348.65 46.57 348.65 61.11Z" />
				<path id="color_x5F_1_14_" fill-rule="evenodd" class="shp1" d="M420.29 26.11C413.2 24.23 405.34 26.04 399.79 31.6C394.81 36.57 392.86 43.39 393.86 49.85L409.24 37.16L396.55 52.54C403.01 53.54 409.83 51.58 414.8 46.61C420.36 41.06 422.17 33.19 420.29 26.11ZM370.39 4C370.39 4 362.11 19.27 362.11 25.39C362.11 30.87 364.8 35.7 368.9 38.71L370.39 23.25L371.87 38.71C375.98 35.7 378.66 30.87 378.66 25.39C378.66 19.27 370.39 4 370.39 4ZM347.13 56.98C348.02 52.76 350.22 49.35 352.98 46.74L337.85 38.71L355 45.01C359.12 41.93 363.94 40.39 367.46 40.39C367.54 40.39 367.6 40.4 367.66 40.4C365.35 37.73 362.46 35.49 359.04 33.9C350.32 29.85 323.1 31.51 323.1 31.51C323.1 31.51 338.24 51.9 347.13 56.98ZM400.58 25.13C380.66 30.75 362.46 47.13 362.46 69.61C362.46 90.51 383.84 106 383.84 106C383.84 106 367.34 87.18 378.75 56.66C376.39 70.1 376.14 85.62 382.38 96.87C390.22 91.31 393.35 84.41 393.89 76.21C394.84 61.55 387.75 56.17 388.85 43.8C389.74 33.86 398.28 26.02 400.58 25.13Z" />
			</g>
			<path id="Markless " fill="#7400ff" aria-label="Markless"  d="M48.29 68.57L44.62 68.57L31.12 41.69L30.63 50.72Q30.41 54.66 30.22 58.56Q30.07 62.42 29.62 65.95Q29.17 69.44 28.19 72.44Q27.26 75.44 25.42 77.65Q23.62 79.82 20.69 81.06Q17.81 82.3 13.46 82.3Q11.54 82.3 9.78 82Q8.02 81.66 6.67 81.1Q5.32 80.54 4.49 79.79Q3.71 79 3.71 78.1Q3.71 77.42 3.89 76.75Q4.08 76.04 4.46 75.47Q4.83 74.87 5.36 74.54Q5.92 74.16 6.59 74.16Q7.01 74.16 7.31 74.57Q7.64 74.99 7.98 75.62Q8.32 76.22 8.73 76.94Q9.18 77.65 9.86 78.29Q10.57 78.89 11.54 79.3Q12.52 79.71 13.98 79.71Q16.87 79.71 18.82 78.74Q20.81 77.72 22.08 75.85Q23.36 73.97 24.03 71.31Q24.71 68.65 25.04 65.27Q25.19 63.4 25.34 61.67Q25.49 59.91 25.64 58.19Q25.79 56.46 25.91 54.7Q26.06 52.9 26.21 50.91Q26.39 48.02 26.54 45.44Q26.69 42.81 26.77 40.56Q26.88 38.31 26.92 36.51Q26.99 34.71 27.03 33.4Q26.39 32.09 25.91 31.3Q25.42 30.47 24.89 30.06Q24.37 29.61 23.73 29.46Q23.09 29.31 22.19 29.31Q21.44 29.31 20.32 29.61Q19.23 29.87 18.03 30.4Q16.87 30.92 15.67 31.71Q14.51 32.46 13.57 33.47Q12.67 34.45 12.07 35.65Q11.51 36.85 11.51 38.24Q11.51 39.44 11.81 40.15Q12.14 40.86 12.56 41.24Q13.01 41.57 13.42 41.69Q13.87 41.76 14.06 41.76Q14.99 41.76 15.59 41.46Q16.19 41.12 16.68 40.79Q17.17 40.41 17.58 40.11Q18.03 39.77 18.59 39.77Q19.04 39.77 19.53 40Q20.06 40.19 20.47 40.64Q20.92 41.09 21.22 41.84Q21.52 42.55 21.52 43.6Q21.52 45.1 20.92 46.19Q20.36 47.27 19.42 48.02Q18.52 48.74 17.32 49.11Q16.16 49.45 14.99 49.45Q13.19 49.45 11.73 48.85Q10.31 48.21 9.29 47.12Q8.28 46.04 7.76 44.57Q7.23 43.11 7.23 41.46Q7.23 37.56 9.03 34.67Q10.83 31.75 13.76 29.8Q16.68 27.85 20.36 26.91Q24.07 25.94 27.89 25.94Q30.97 25.94 33.03 26.57Q35.09 27.17 36.48 28.22Q37.87 29.24 38.77 30.62Q39.67 32.01 40.42 33.55L50.32 53.65Q54.18 46.04 57.33 40.04Q60.52 34 63.22 29.42Q65.92 24.85 68.24 21.62Q70.61 18.4 72.78 16.37Q74.99 14.31 77.13 13.37Q79.31 12.44 81.63 12.44Q83.62 12.44 84.86 13.3Q86.09 14.12 86.09 15.81Q86.09 17.31 85.61 18.29Q85.12 19.26 84.26 19.26Q83.54 19.26 83.17 18.74Q82.79 18.17 82.42 17.54Q82.08 16.9 81.56 16.37Q81.03 15.81 80.02 15.81Q79.42 15.81 78.56 16.15Q77.69 16.49 76.76 17.16Q75.86 17.84 74.96 18.85Q74.06 19.86 73.38 21.21Q72.71 22.56 72.33 24.29Q71.96 26.01 72.11 28.07Q72.26 30.44 72.52 33.62Q72.78 36.77 73.08 40.41Q73.42 44.01 73.76 47.87Q74.13 51.74 74.51 55.49Q74.88 59.24 75.22 62.69Q75.59 66.14 75.89 68.95Q76.19 71.72 76.46 73.67Q76.72 75.59 76.87 76.3Q77.09 77.39 77.47 78.06Q77.84 78.7 78.82 78.7Q79.83 78.7 80.73 78.36Q81.63 77.99 82.34 77.61L82.94 79Q82.27 79.49 81.22 80.12Q80.21 80.72 78.86 81.29Q77.54 81.85 75.93 82.23Q74.36 82.6 72.52 82.6Q69.93 82.6 68.43 81.96Q66.93 81.29 66.11 80.35Q65.32 79.37 65.02 78.32Q64.76 77.24 64.61 76.37Q64.27 74.46 63.89 71.76Q63.52 69.06 63.14 65.99Q62.81 62.87 62.47 59.61Q62.13 56.31 61.83 53.2Q61.57 50.05 61.34 47.27Q61.12 44.5 60.97 42.44Q59.84 44.27 58.87 46Q57.93 47.69 57.03 49.49Q56.13 51.25 55.19 53.2Q54.26 55.15 53.21 57.44Q52.19 59.72 50.96 62.46Q49.76 65.2 48.29 68.57ZM104.58 71.72L104.58 62.57Q104.58 61.64 103.98 61.15Q103.38 60.66 102.44 60.66Q101.13 60.66 99.93 61.26Q98.77 61.86 97.87 63.02Q96.97 64.19 96.44 65.91Q95.92 67.6 95.92 69.85Q95.92 72.02 96.22 73.45Q96.56 74.87 97.08 75.74Q97.64 76.56 98.36 76.9Q99.07 77.24 99.86 77.24Q100.83 77.24 101.69 76.75Q102.56 76.22 103.19 75.44Q103.83 74.65 104.21 73.67Q104.58 72.7 104.58 71.72ZM98.62 46.15Q97.34 46.15 96.26 46.45Q95.17 46.75 94.38 47.2Q93.59 47.65 93.14 48.21Q92.69 48.74 92.69 49.22Q92.69 49.79 93.26 50.05Q93.86 50.27 94.57 50.61Q95.28 50.91 95.84 51.51Q96.44 52.07 96.44 53.27Q96.44 54.06 96.11 54.74Q95.81 55.37 95.24 55.9Q94.72 56.39 93.97 56.69Q93.26 56.95 92.47 56.95Q90.37 56.95 89.06 55.52Q87.78 54.1 87.78 51.74Q87.78 49.45 88.98 47.84Q90.18 46.19 92.09 45.14Q94.04 44.09 96.48 43.6Q98.92 43.07 101.36 43.07Q104.28 43.07 106.94 43.71Q109.61 44.35 111.63 45.74Q113.69 47.12 114.89 49.26Q116.13 51.4 116.13 54.44L116.13 75.62Q116.13 75.96 116.17 76.37Q116.21 76.79 116.36 77.12Q116.51 77.46 116.81 77.69Q117.11 77.91 117.67 77.91Q118.34 77.91 118.91 77.42Q119.51 76.9 119.96 76.37L120.89 77.16Q120.33 77.95 119.54 78.89Q118.76 79.82 117.63 80.65Q116.51 81.47 115.01 82.04Q113.51 82.6 111.59 82.6Q109.23 82.6 107.39 81.21Q105.56 79.79 104.99 76.86Q103.79 78.47 102.48 79.56Q101.21 80.65 99.86 81.32Q98.51 82 97.12 82.3Q95.77 82.6 94.38 82.6Q92.58 82.6 90.89 82.04Q89.21 81.47 87.86 80.27Q86.54 79.04 85.72 77.09Q84.93 75.14 84.93 72.32Q84.93 68.91 86.28 66.74Q87.63 64.56 89.81 63.1Q92.02 61.6 94.79 60.55Q97.61 59.5 100.53 58.34Q102.71 57.47 103.68 55.79Q104.69 54.06 104.69 52.26Q104.69 49.49 103.04 47.84Q101.43 46.15 98.62 46.15ZM137.92 50.99Q139.34 48.81 140.96 47.05Q141.63 46.3 142.42 45.59Q143.21 44.87 144.03 44.31Q144.89 43.75 145.79 43.41Q146.69 43.07 147.59 43.07Q149.51 43.07 150.59 44.24Q151.68 45.36 151.68 47.42Q151.68 48.7 151.46 49.9Q151.27 51.06 150.67 52.75L149.62 52.75Q149.39 51.59 148.57 50.84Q147.74 50.05 146.17 50.05Q145.01 50.05 143.88 50.5Q142.76 50.91 141.67 51.55Q140.62 52.19 139.64 52.94Q138.71 53.69 137.92 54.36L137.92 78.7Q137.92 79.19 137.77 79.86Q137.62 80.54 137.02 81.14Q136.46 81.74 135.29 82.19Q134.17 82.6 132.18 82.6Q130.19 82.6 129.03 82.15Q127.91 81.66 127.31 81.02Q126.71 80.39 126.56 79.71Q126.41 79.04 126.41 78.62L126.41 49.67Q126.41 48.59 125.88 47.8Q125.39 46.97 124.19 46.97Q123.56 46.97 123.11 47.2Q122.66 47.42 122.13 47.84L121.34 46.9Q122.21 46.19 123.26 45.51Q124.34 44.8 125.58 44.27Q126.82 43.75 128.24 43.41Q129.67 43.07 131.24 43.07Q132.86 43.07 133.98 43.52Q135.14 43.94 135.86 44.65Q136.61 45.32 137.02 46.19Q137.43 47.05 137.62 47.95Q137.84 48.81 137.88 49.64Q137.92 50.42 137.92 50.99ZM167.28 29.84L167.28 53.27Q168.59 51.51 170.09 49.71Q171.59 47.87 173.32 46.41Q175.04 44.95 177.07 44.01Q179.09 43.07 181.49 43.07Q183.63 43.07 185.06 43.94Q186.48 44.76 187.34 45.96Q188.24 47.12 188.58 48.4Q188.96 49.67 188.96 50.57Q188.96 52.22 188.51 54.02Q188.09 55.79 187.04 57.55Q186.03 59.27 184.31 60.92Q182.58 62.54 179.96 63.89Q183.48 71.35 186.82 76.75Q190.16 82.11 193.23 85.6Q196.34 89.05 199.19 90.7Q202.04 92.35 204.63 92.35Q205.08 92.35 205.53 92.24Q205.98 92.13 206.36 91.98Q206.77 91.83 207.22 91.6L207.93 92.91Q206.92 93.48 205.87 94Q204.82 94.49 203.47 94.86Q202.12 95.24 200.36 95.46Q198.59 95.69 196.16 95.69Q193.94 95.69 191.77 95.16Q189.63 94.64 187.46 93.29Q185.28 91.94 183.03 89.69Q180.82 87.44 178.46 83.99Q176.13 80.54 173.66 75.77Q171.18 71.01 168.52 64.64Q172.12 61.97 174.18 59.72Q176.24 57.44 177.29 55.6Q178.34 53.76 178.61 52.34Q178.87 50.91 178.87 49.9Q178.87 49.75 178.83 49.41Q178.79 49.04 178.57 48.7Q178.38 48.36 177.97 48.1Q177.59 47.84 176.88 47.84Q175.49 47.84 174.07 49.04Q172.64 50.2 171.33 51.96Q170.06 53.69 169.01 55.71Q167.96 57.7 167.28 59.35L167.28 78.7Q167.28 79.19 167.09 79.86Q166.94 80.54 166.31 81.14Q165.71 81.74 164.51 82.19Q163.34 82.6 161.36 82.6Q159.37 82.6 158.24 82.15Q157.12 81.66 156.56 81.02Q156.03 80.39 155.88 79.71Q155.77 79.04 155.77 78.62L155.77 30.25Q155.77 29.16 155.24 28.37Q154.76 27.55 153.56 27.55Q152.92 27.55 152.43 27.77Q151.98 27.96 151.46 28.37L150.71 27.47Q151.57 26.76 152.62 26.09Q153.67 25.37 154.91 24.85Q156.18 24.32 157.61 23.99Q159.03 23.65 160.61 23.65Q163.04 23.65 164.39 24.32Q165.74 24.96 166.38 25.94Q167.02 26.87 167.13 27.96Q167.28 29.01 167.28 29.84ZM208.04 29.84L208.04 78.7Q208.04 79.19 207.86 79.86Q207.71 80.54 207.07 81.14Q206.47 81.74 205.27 82.19Q204.11 82.6 202.12 82.6Q200.13 82.6 199.01 82.15Q197.88 81.66 197.32 81.02Q196.79 80.39 196.64 79.71Q196.53 79.04 196.53 78.62L196.53 30.25Q196.53 29.16 196.01 28.37Q195.52 27.55 194.32 27.55Q193.68 27.55 193.19 27.77Q192.74 27.96 192.22 28.37L191.47 27.47Q192.33 26.76 193.38 26.09Q194.43 25.37 195.67 24.85Q196.94 24.32 198.37 23.99Q199.79 23.65 201.37 23.65Q203.81 23.65 205.16 24.32Q206.51 24.96 207.14 25.94Q207.78 26.87 207.89 27.96Q208.04 29.01 208.04 29.84ZM241.98 56.05L227.17 64.79Q227.17 65.99 227.51 67.41Q227.88 68.8 228.56 70.22Q229.23 71.65 230.21 72.96Q231.22 74.24 232.49 75.25Q233.81 76.26 235.38 76.86Q236.96 77.46 238.83 77.46Q240.14 77.46 241.27 77.16Q242.39 76.86 243.37 76.34Q244.34 75.81 245.24 75.14Q246.14 74.42 247.04 73.64L247.98 74.54Q247.12 75.7 245.77 77.09Q244.42 78.47 242.51 79.71Q240.59 80.91 238.04 81.74Q235.49 82.53 232.23 82.53Q228.97 82.53 225.86 81.36Q222.78 80.16 220.38 77.8Q217.98 75.44 216.52 71.91Q215.09 68.39 215.09 63.66Q215.09 60.25 215.96 57.4Q216.82 54.55 218.28 52.26Q219.78 49.97 221.73 48.25Q223.72 46.52 225.89 45.4Q228.07 44.24 230.32 43.67Q232.61 43.07 234.71 43.07Q237.48 43.07 239.54 43.67Q241.61 44.27 242.96 45.29Q244.34 46.3 245.02 47.65Q245.69 48.96 245.69 50.42Q245.69 52.19 244.68 53.61Q243.67 55 241.98 56.05ZM226.79 61.71L234.71 57.17Q235.19 56.87 235.49 56.61Q235.83 56.31 236.02 55.94Q236.21 55.52 236.28 54.96Q236.39 54.36 236.39 53.5Q236.39 52.56 236.17 51.44Q235.98 50.27 235.49 49.26Q235.01 48.25 234.26 47.57Q233.51 46.9 232.46 46.9Q231.11 46.9 230.13 47.72Q229.19 48.51 228.56 49.79Q227.96 51.06 227.58 52.71Q227.24 54.32 227.06 55.97Q226.87 57.62 226.83 59.16Q226.79 60.66 226.79 61.71ZM265.08 46.07Q264.22 46.07 263.43 46.3Q262.68 46.52 262.08 47.05Q261.48 47.54 261.14 48.32Q260.81 49.07 260.81 50.12Q260.81 51.59 261.86 53.05Q262.94 54.47 264.52 56.05Q266.13 57.59 267.97 59.27Q269.84 60.92 271.42 62.8Q273.03 64.64 274.08 66.74Q275.17 68.84 275.17 71.24Q275.17 73.94 274.23 76.04Q273.33 78.14 271.61 79.6Q269.92 81.06 267.48 81.85Q265.08 82.6 262.12 82.6Q259.53 82.6 257.43 81.89Q255.33 81.14 253.68 80.09Q252.07 79 250.91 77.8Q249.74 76.6 249.11 75.62L250.42 74.69Q250.91 75.25 251.66 75.92Q252.41 76.56 253.31 77.12Q254.24 77.69 255.29 78.06Q256.34 78.4 257.43 78.4Q260.13 78.4 261.86 77.12Q263.58 75.81 263.58 73.26Q263.58 71.84 262.64 70.34Q261.71 68.8 260.28 67.19Q258.86 65.57 257.21 63.85Q255.56 62.12 254.13 60.29Q252.71 58.45 251.77 56.5Q250.83 54.55 250.83 52.45Q250.83 50.09 251.77 48.32Q252.74 46.56 254.32 45.4Q255.93 44.24 257.96 43.67Q260.02 43.07 262.19 43.07Q264.71 43.07 266.77 43.52Q268.83 43.97 270.29 44.91Q271.79 45.81 272.58 47.2Q273.41 48.59 273.41 50.42Q273.41 51.85 272.47 52.9Q271.53 53.95 269.84 53.95Q268.23 53.95 267.37 53.27Q266.54 52.56 266.54 51.36Q266.54 50.57 266.92 50.12Q267.33 49.67 267.82 49.41Q268.31 49.11 268.68 48.92Q269.09 48.7 269.09 48.36Q269.09 47.31 267.97 46.71Q266.84 46.07 265.08 46.07ZM293.43 46.07Q292.57 46.07 291.78 46.3Q291.03 46.52 290.43 47.05Q289.83 47.54 289.49 48.32Q289.16 49.07 289.16 50.12Q289.16 51.59 290.21 53.05Q291.29 54.47 292.87 56.05Q294.48 57.59 296.32 59.27Q298.19 60.92 299.77 62.8Q301.38 64.64 302.43 66.74Q303.52 68.84 303.52 71.24Q303.52 73.94 302.58 76.04Q301.68 78.14 299.96 79.6Q298.27 81.06 295.83 81.85Q293.43 82.6 290.47 82.6Q287.88 82.6 285.78 81.89Q283.68 81.14 282.03 80.09Q280.42 79 279.26 77.8Q278.09 76.6 277.46 75.62L278.77 74.69Q279.26 75.25 280.01 75.92Q280.76 76.56 281.66 77.12Q282.59 77.69 283.64 78.06Q284.69 78.4 285.78 78.4Q288.48 78.4 290.21 77.12Q291.93 75.81 291.93 73.26Q291.93 71.84 290.99 70.34Q290.06 68.8 288.63 67.19Q287.21 65.57 285.56 63.85Q283.91 62.12 282.48 60.29Q281.06 58.45 280.12 56.5Q279.18 54.55 279.18 52.45Q279.18 50.09 280.12 48.32Q281.09 46.56 282.67 45.4Q284.28 44.24 286.31 43.67Q288.37 43.07 290.54 43.07Q293.06 43.07 295.12 43.52Q297.18 43.97 298.64 44.91Q300.14 45.81 300.93 47.2Q301.76 48.59 301.76 50.42Q301.76 51.85 300.82 52.9Q299.88 53.95 298.19 53.95Q296.58 53.95 295.72 53.27Q294.89 52.56 294.89 51.36Q294.89 50.57 295.27 50.12Q295.68 49.67 296.17 49.41Q296.66 49.11 297.03 48.92Q297.44 48.7 297.44 48.36Q297.44 47.31 296.32 46.71Q295.19 46.07 293.43 46.07Z" />
		</g>
	</g>
</svg>